<svg width="224" height="82" viewBox="0 0 224 82" fill="none" xmlns="http://www.w3.org/2000/svg">
<g filter="url(#filter0_ddd_22_99567)">
<g clip-path="url(#clip0_22_99567)">
<rect x="12.8625" y="12.2626" width="198.275" height="54.075" rx="27.0375" fill="#6D6D6D"/>
<rect x="12.8625" y="12.2626" width="198.275" height="54.075" rx="27.0375" fill="url(#paint0_linear_22_99567)" fill-opacity="0.25" style="mix-blend-mode:soft-light"/>
<rect x="12.8625" y="12.2626" width="198.275" height="54.075" rx="27.0375" stroke="url(#paint1_linear_22_99567)" stroke-width="7.725" style="mix-blend-mode:soft-light"/>
</g>
<rect x="7.06875" y="6.4689" width="209.863" height="65.6625" rx="32.8313" stroke="#0A0A0A" stroke-opacity="0.35" stroke-width="3.8625"/>
</g>
<path d="M56.4245 38.4111C56.4245 36.158 56.8751 34.1516 57.7763 32.392C58.6991 30.6324 60.008 29.2698 61.7032 28.3042C63.3984 27.3171 65.3941 26.8236 67.6901 26.8236C69.6643 26.8236 71.4238 27.1991 72.9688 27.9501C74.5353 28.6797 75.8013 29.7205 76.767 31.0723C77.7541 32.4242 78.4085 34.0014 78.7304 35.8039H71.1985C70.8552 35.0529 70.3617 34.4735 69.7179 34.0658C69.0956 33.6366 68.3768 33.422 67.5613 33.422C66.3597 33.422 65.4048 33.8726 64.6967 34.7739C64.01 35.6751 63.6667 36.8875 63.6667 38.4111C63.6667 39.9346 64.01 41.147 64.6967 42.0483C65.4048 42.9495 66.3597 43.4001 67.5613 43.4001C68.3768 43.4001 69.0956 43.1963 69.7179 42.7886C70.3617 42.3594 70.8552 41.7693 71.1985 41.0183H78.7304C78.4085 42.8208 77.7541 44.398 76.767 45.7498C75.8013 47.1017 74.5353 48.1532 72.9688 48.9042C71.4238 49.6338 69.6643 49.9986 67.6901 49.9986C65.3941 49.9986 63.3984 49.5158 61.7032 48.5501C60.008 47.5631 58.6991 46.1897 57.7763 44.4301C56.8751 42.6706 56.4245 40.6642 56.4245 38.4111ZM87.966 35.0314C88.6955 33.9799 89.5861 33.1431 90.6375 32.5208C91.689 31.877 92.7834 31.5551 93.9206 31.5551V39.1836H91.8928C90.541 39.1836 89.5431 39.4196 88.8994 39.8917C88.2771 40.3638 87.966 41.2007 87.966 42.4023V49.8376H80.8203V31.6839H87.966V35.0314ZM112.937 40.5998C112.937 41.0934 112.905 41.5655 112.84 42.0161H101.349C101.457 43.5825 102.111 44.3658 103.313 44.3658C104.085 44.3658 104.643 44.0117 104.987 43.3036H112.551C112.293 44.5911 111.746 45.7498 110.909 46.7798C110.094 47.7884 109.053 48.5931 107.787 49.1939C106.542 49.7733 105.169 50.063 103.667 50.063C101.864 50.063 100.255 49.6874 98.8388 48.9364C97.444 48.1854 96.3496 47.1124 95.5557 45.7176C94.7832 44.3014 94.3969 42.6491 94.3969 40.7608C94.3969 38.8724 94.7832 37.2309 95.5557 35.8361C96.3496 34.4198 97.444 33.3362 98.8388 32.5851C100.255 31.8341 101.864 31.4586 103.667 31.4586C105.469 31.4586 107.068 31.8341 108.463 32.5851C109.879 33.3147 110.973 34.3662 111.746 35.7395C112.54 37.1129 112.937 38.733 112.937 40.5998ZM105.695 38.8939C105.695 38.2931 105.502 37.8424 105.115 37.542C104.729 37.2201 104.246 37.0592 103.667 37.0592C102.401 37.0592 101.661 37.6708 101.446 38.8939H105.695ZM113.748 40.7608C113.748 38.851 114.07 37.1987 114.714 35.8039C115.379 34.3876 116.28 33.3147 117.418 32.5851C118.555 31.8341 119.832 31.4586 121.248 31.4586C122.428 31.4586 123.448 31.7054 124.306 32.1989C125.164 32.671 125.819 33.3255 126.269 34.1623V31.6839H133.383V49.8376H126.269V47.3592C125.819 48.1961 125.164 48.8613 124.306 49.3548C123.448 49.8269 122.428 50.063 121.248 50.063C119.832 50.063 118.555 49.6982 117.418 48.9686C116.28 48.2175 115.379 47.1446 114.714 45.7498C114.07 44.3336 113.748 42.6706 113.748 40.7608ZM126.269 40.7608C126.269 39.7951 126.023 39.0441 125.529 38.5076C125.035 37.9712 124.402 37.703 123.63 37.703C122.857 37.703 122.224 37.9712 121.731 38.5076C121.237 39.0441 120.991 39.7951 120.991 40.7608C120.991 41.7264 121.237 42.4774 121.731 43.0139C122.224 43.5504 122.857 43.8186 123.63 43.8186C124.402 43.8186 125.035 43.5504 125.529 43.0139C126.023 42.4774 126.269 41.7264 126.269 40.7608ZM147.406 43.7542V49.8376H144.703C139.724 49.8376 137.235 47.3592 137.235 42.4023V37.6386H134.982V31.6839H137.235V27.3064H144.381V31.6839H147.342V37.6386H144.381V42.5311C144.381 42.9603 144.477 43.2714 144.671 43.4645C144.885 43.6576 145.228 43.7542 145.701 43.7542H147.406ZM167.219 40.5998C167.219 41.0934 167.187 41.5655 167.123 42.0161H155.632C155.739 43.5825 156.394 44.3658 157.595 44.3658C158.368 44.3658 158.926 44.0117 159.269 43.3036H166.833C166.576 44.5911 166.028 45.7498 165.192 46.7798C164.376 47.7884 163.335 48.5931 162.069 49.1939C160.825 49.7733 159.451 50.063 157.949 50.063C156.147 50.063 154.538 49.6874 153.121 48.9364C151.726 48.1854 150.632 47.1124 149.838 45.7176C149.066 44.3014 148.679 42.6491 148.679 40.7608C148.679 38.8724 149.066 37.2309 149.838 35.8361C150.632 34.4198 151.726 33.3362 153.121 32.5851C154.538 31.8341 156.147 31.4586 157.949 31.4586C159.752 31.4586 161.351 31.8341 162.745 32.5851C164.162 33.3147 165.256 34.3662 166.028 35.7395C166.822 37.1129 167.219 38.733 167.219 40.5998ZM159.977 38.8939C159.977 38.2931 159.784 37.8424 159.398 37.542C159.012 37.2201 158.529 37.0592 157.949 37.0592C156.683 37.0592 155.943 37.6708 155.728 38.8939H159.977Z" fill="#383838"/>
<defs>
<filter id="filter0_ddd_22_99567" x="0.137451" y="0.537598" width="223.725" height="80.5251" filterUnits="userSpaceOnUse" color-interpolation-filters="sRGB">
<feFlood flood-opacity="0" result="BackgroundImageFix"/>
<feColorMatrix in="SourceAlpha" type="matrix" values="0 0 0 0 0 0 0 0 0 0 0 0 0 0 0 0 0 0 127 0" result="hardAlpha"/>
<feOffset dy="1"/>
<feGaussianBlur stdDeviation="2.5"/>
<feColorMatrix type="matrix" values="0 0 0 0 0 0 0 0 0 0 0 0 0 0 0 0 0 0 0.2 0"/>
<feBlend mode="normal" in2="BackgroundImageFix" result="effect1_dropShadow_22_99567"/>
<feColorMatrix in="SourceAlpha" type="matrix" values="0 0 0 0 0 0 0 0 0 0 0 0 0 0 0 0 0 0 127 0" result="hardAlpha"/>
<feOffset dy="3"/>
<feGaussianBlur stdDeviation="2"/>
<feColorMatrix type="matrix" values="0 0 0 0 0 0 0 0 0 0 0 0 0 0 0 0 0 0 0.12 0"/>
<feBlend mode="normal" in2="effect1_dropShadow_22_99567" result="effect2_dropShadow_22_99567"/>
<feColorMatrix in="SourceAlpha" type="matrix" values="0 0 0 0 0 0 0 0 0 0 0 0 0 0 0 0 0 0 127 0" result="hardAlpha"/>
<feOffset dy="2"/>
<feGaussianBlur stdDeviation="2"/>
<feColorMatrix type="matrix" values="0 0 0 0 0 0 0 0 0 0 0 0 0 0 0 0 0 0 0.14 0"/>
<feBlend mode="normal" in2="effect2_dropShadow_22_99567" result="effect3_dropShadow_22_99567"/>
<feBlend mode="normal" in="SourceGraphic" in2="effect3_dropShadow_22_99567" result="shape"/>
</filter>
<linearGradient id="paint0_linear_22_99567" x1="112" y1="8.40015" x2="112" y2="70.2001" gradientUnits="userSpaceOnUse">
<stop/>
<stop offset="1" stop-color="white" stop-opacity="0"/>
</linearGradient>
<linearGradient id="paint1_linear_22_99567" x1="112" y1="8.40015" x2="112" y2="70.2001" gradientUnits="userSpaceOnUse">
<stop stop-color="white"/>
<stop offset="1"/>
</linearGradient>
<clipPath id="clip0_22_99567">
<rect x="9" y="8.40015" width="206" height="61.8" rx="30.9" fill="white"/>
</clipPath>
</defs>
</svg>
