<svg width="224" height="82" viewBox="0 0 224 82" fill="none" xmlns="http://www.w3.org/2000/svg">
<g filter="url(#filter0_ddd_22_95735)">
<g clip-path="url(#clip0_22_95735)">
<path d="M10 39.7001C10 23.1867 23.3867 9.80005 39.9 9.80005H184.1C200.613 9.80005 214 23.1867 214 39.7001C214 56.2134 200.613 69.6001 184.1 69.6001H39.9C23.3867 69.6001 10 56.2134 10 39.7001Z" fill="#FFAE02"/>
<path d="M10 39.7001C10 23.1867 23.3867 9.80005 39.9 9.80005H184.1C200.613 9.80005 214 23.1867 214 39.7001C214 56.2134 200.613 69.6001 184.1 69.6001H39.9C23.3867 69.6001 10 56.2134 10 39.7001Z" fill="url(#paint0_linear_22_95735)" fill-opacity="0.45" style="mix-blend-mode:soft-light"/>
<path d="M10 39.7001C10 23.1867 23.3867 9.80005 39.9 9.80005H184.1C200.613 9.80005 214 23.1867 214 39.7001C214 56.2134 200.613 69.6001 184.1 69.6001H39.9C23.3867 69.6001 10 56.2134 10 39.7001Z" stroke="url(#paint1_linear_22_95735)" stroke-width="2" style="mix-blend-mode:soft-light"/>
</g>
<rect x="7.06875" y="6.8688" width="209.863" height="65.6625" rx="32.8313" stroke="#0A0A0A" stroke-opacity="0.35" stroke-width="3.8625"/>
</g>
<g filter="url(#filter1_ddd_22_95735)">
<mask id="path-4-outside-1_22_95735" maskUnits="userSpaceOnUse" x="53.423" y="26.2375" width="117" height="27" fill="black">
<rect fill="white" x="53.423" y="26.2375" width="117" height="27"/>
<path d="M54.7158 39.456C54.7158 37.1329 55.1804 35.0642 56.1097 33.2499C57.061 31.4357 58.4107 30.0307 60.1585 29.0351C61.9064 28.0174 63.964 27.5085 66.3314 27.5085C68.3669 27.5085 70.1812 27.8957 71.7742 28.67C73.3893 29.4223 74.6947 30.4954 75.6903 31.8892C76.708 33.2831 77.3828 34.9093 77.7147 36.7678H69.9488C69.5948 35.9934 69.086 35.396 68.4222 34.9757C67.7806 34.5332 67.0394 34.3119 66.1987 34.3119C64.9597 34.3119 63.9751 34.7765 63.245 35.7058C62.537 36.635 62.183 37.8851 62.183 39.456C62.183 41.0269 62.537 42.2769 63.245 43.2062C63.9751 44.1354 64.9597 44.6 66.1987 44.6C67.0394 44.6 67.7806 44.3899 68.4222 43.9695C69.086 43.527 69.5948 42.9185 69.9488 42.1442H77.7147C77.3828 44.0027 76.708 45.6289 75.6903 47.0227C74.6947 48.4166 73.3893 49.5007 71.7742 50.2751C70.1812 51.0274 68.3669 51.4035 66.3314 51.4035C63.964 51.4035 61.9064 50.9057 60.1585 49.91C58.4107 48.8923 57.061 47.4763 56.1097 45.662C55.1804 43.8478 54.7158 41.7791 54.7158 39.456ZM87.2372 35.9713C87.9894 34.8872 88.9076 34.0243 89.9918 33.3827C91.0759 32.7189 92.2043 32.387 93.3769 32.387V40.2525H91.2861C89.8922 40.2525 88.8634 40.4959 88.1996 40.9826C87.558 41.4694 87.2372 42.3322 87.2372 43.5712V51.2375H79.8696V32.5198H87.2372V35.9713ZM112.984 41.7127C112.984 42.2216 112.951 42.7084 112.884 43.173H101.036C101.147 44.7881 101.822 45.5957 103.061 45.5957C103.857 45.5957 104.433 45.2306 104.787 44.5005H112.586C112.32 45.828 111.756 47.0227 110.893 48.0847C110.052 49.1246 108.979 49.9543 107.674 50.5738C106.391 51.1712 104.975 51.4699 103.426 51.4699C101.567 51.4699 99.9081 51.0827 98.4478 50.3083C97.0097 49.5339 95.8813 48.4277 95.0627 46.9895C94.2662 45.5293 93.868 43.8257 93.868 41.8787C93.868 39.9317 94.2662 38.2391 95.0627 36.801C95.8813 35.3407 97.0097 34.2234 98.4478 33.449C99.9081 32.6747 101.567 32.2875 103.426 32.2875C105.284 32.2875 106.933 32.6747 108.371 33.449C109.831 34.2013 110.96 35.2854 111.756 36.7014C112.575 38.1174 112.984 39.7879 112.984 41.7127ZM105.517 39.9538C105.517 39.3343 105.318 38.8697 104.919 38.5599C104.521 38.228 104.023 38.0621 103.426 38.0621C102.121 38.0621 101.357 38.6927 101.136 39.9538H105.517ZM113.821 41.8787C113.821 39.9095 114.153 38.2059 114.816 36.7678C115.502 35.3075 116.431 34.2013 117.604 33.449C118.777 32.6747 120.093 32.2875 121.553 32.2875C122.77 32.2875 123.821 32.5419 124.706 33.0508C125.591 33.5375 126.266 34.2124 126.731 35.0752V32.5198H134.065V51.2375H126.731V48.6821C126.266 49.545 125.591 50.2309 124.706 50.7397C123.821 51.2265 122.77 51.4699 121.553 51.4699C120.093 51.4699 118.777 51.0937 117.604 50.3415C116.431 49.5671 115.502 48.4609 114.816 47.0227C114.153 45.5625 113.821 43.8478 113.821 41.8787ZM126.731 41.8787C126.731 40.883 126.476 40.1087 125.967 39.5555C125.458 39.0024 124.806 38.7259 124.009 38.7259C123.213 38.7259 122.56 39.0024 122.051 39.5555C121.542 40.1087 121.288 40.883 121.288 41.8787C121.288 42.8743 121.542 43.6487 122.051 44.2018C122.56 44.7549 123.213 45.0315 124.009 45.0315C124.806 45.0315 125.458 44.7549 125.967 44.2018C126.476 43.6487 126.731 42.8743 126.731 41.8787ZM148.524 44.9651V51.2375H145.737C140.604 51.2375 138.037 48.6821 138.037 43.5712V38.6595H135.714V32.5198H138.037V28.0063H145.405V32.5198H148.458V38.6595H145.405V43.704C145.405 44.1465 145.504 44.4673 145.703 44.6664C145.925 44.8655 146.279 44.9651 146.765 44.9651H148.524ZM168.953 41.7127C168.953 42.2216 168.92 42.7084 168.853 43.173H157.005C157.116 44.7881 157.791 45.5957 159.03 45.5957C159.826 45.5957 160.402 45.2306 160.756 44.5005H168.555C168.289 45.828 167.725 47.0227 166.862 48.0847C166.021 49.1246 164.948 49.9543 163.643 50.5738C162.36 51.1712 160.944 51.4699 159.395 51.4699C157.536 51.4699 155.877 51.0827 154.417 50.3083C152.979 49.5339 151.85 48.4277 151.032 46.9895C150.235 45.5293 149.837 43.8257 149.837 41.8787C149.837 39.9317 150.235 38.2391 151.032 36.801C151.85 35.3407 152.979 34.2234 154.417 33.449C155.877 32.6747 157.536 32.2875 159.395 32.2875C161.253 32.2875 162.902 32.6747 164.34 33.449C165.8 34.2013 166.928 35.2854 167.725 36.7014C168.544 38.1174 168.953 39.7879 168.953 41.7127ZM161.486 39.9538C161.486 39.3343 161.287 38.8697 160.888 38.5599C160.49 38.228 159.992 38.0621 159.395 38.0621C158.089 38.0621 157.326 38.6927 157.105 39.9538H161.486Z"/>
</mask>
<path d="M54.7158 39.456C54.7158 37.1329 55.1804 35.0642 56.1097 33.2499C57.061 31.4357 58.4107 30.0307 60.1585 29.0351C61.9064 28.0174 63.964 27.5085 66.3314 27.5085C68.3669 27.5085 70.1812 27.8957 71.7742 28.67C73.3893 29.4223 74.6947 30.4954 75.6903 31.8892C76.708 33.2831 77.3828 34.9093 77.7147 36.7678H69.9488C69.5948 35.9934 69.086 35.396 68.4222 34.9757C67.7806 34.5332 67.0394 34.3119 66.1987 34.3119C64.9597 34.3119 63.9751 34.7765 63.245 35.7058C62.537 36.635 62.183 37.8851 62.183 39.456C62.183 41.0269 62.537 42.2769 63.245 43.2062C63.9751 44.1354 64.9597 44.6 66.1987 44.6C67.0394 44.6 67.7806 44.3899 68.4222 43.9695C69.086 43.527 69.5948 42.9185 69.9488 42.1442H77.7147C77.3828 44.0027 76.708 45.6289 75.6903 47.0227C74.6947 48.4166 73.3893 49.5007 71.7742 50.2751C70.1812 51.0274 68.3669 51.4035 66.3314 51.4035C63.964 51.4035 61.9064 50.9057 60.1585 49.91C58.4107 48.8923 57.061 47.4763 56.1097 45.662C55.1804 43.8478 54.7158 41.7791 54.7158 39.456ZM87.2372 35.9713C87.9894 34.8872 88.9076 34.0243 89.9918 33.3827C91.0759 32.7189 92.2043 32.387 93.3769 32.387V40.2525H91.2861C89.8922 40.2525 88.8634 40.4959 88.1996 40.9826C87.558 41.4694 87.2372 42.3322 87.2372 43.5712V51.2375H79.8696V32.5198H87.2372V35.9713ZM112.984 41.7127C112.984 42.2216 112.951 42.7084 112.884 43.173H101.036C101.147 44.7881 101.822 45.5957 103.061 45.5957C103.857 45.5957 104.433 45.2306 104.787 44.5005H112.586C112.32 45.828 111.756 47.0227 110.893 48.0847C110.052 49.1246 108.979 49.9543 107.674 50.5738C106.391 51.1712 104.975 51.4699 103.426 51.4699C101.567 51.4699 99.9081 51.0827 98.4478 50.3083C97.0097 49.5339 95.8813 48.4277 95.0627 46.9895C94.2662 45.5293 93.868 43.8257 93.868 41.8787C93.868 39.9317 94.2662 38.2391 95.0627 36.801C95.8813 35.3407 97.0097 34.2234 98.4478 33.449C99.9081 32.6747 101.567 32.2875 103.426 32.2875C105.284 32.2875 106.933 32.6747 108.371 33.449C109.831 34.2013 110.96 35.2854 111.756 36.7014C112.575 38.1174 112.984 39.7879 112.984 41.7127ZM105.517 39.9538C105.517 39.3343 105.318 38.8697 104.919 38.5599C104.521 38.228 104.023 38.0621 103.426 38.0621C102.121 38.0621 101.357 38.6927 101.136 39.9538H105.517ZM113.821 41.8787C113.821 39.9095 114.153 38.2059 114.816 36.7678C115.502 35.3075 116.431 34.2013 117.604 33.449C118.777 32.6747 120.093 32.2875 121.553 32.2875C122.77 32.2875 123.821 32.5419 124.706 33.0508C125.591 33.5375 126.266 34.2124 126.731 35.0752V32.5198H134.065V51.2375H126.731V48.6821C126.266 49.545 125.591 50.2309 124.706 50.7397C123.821 51.2265 122.77 51.4699 121.553 51.4699C120.093 51.4699 118.777 51.0937 117.604 50.3415C116.431 49.5671 115.502 48.4609 114.816 47.0227C114.153 45.5625 113.821 43.8478 113.821 41.8787ZM126.731 41.8787C126.731 40.883 126.476 40.1087 125.967 39.5555C125.458 39.0024 124.806 38.7259 124.009 38.7259C123.213 38.7259 122.56 39.0024 122.051 39.5555C121.542 40.1087 121.288 40.883 121.288 41.8787C121.288 42.8743 121.542 43.6487 122.051 44.2018C122.56 44.7549 123.213 45.0315 124.009 45.0315C124.806 45.0315 125.458 44.7549 125.967 44.2018C126.476 43.6487 126.731 42.8743 126.731 41.8787ZM148.524 44.9651V51.2375H145.737C140.604 51.2375 138.037 48.6821 138.037 43.5712V38.6595H135.714V32.5198H138.037V28.0063H145.405V32.5198H148.458V38.6595H145.405V43.704C145.405 44.1465 145.504 44.4673 145.703 44.6664C145.925 44.8655 146.279 44.9651 146.765 44.9651H148.524ZM168.953 41.7127C168.953 42.2216 168.92 42.7084 168.853 43.173H157.005C157.116 44.7881 157.791 45.5957 159.03 45.5957C159.826 45.5957 160.402 45.2306 160.756 44.5005H168.555C168.289 45.828 167.725 47.0227 166.862 48.0847C166.021 49.1246 164.948 49.9543 163.643 50.5738C162.36 51.1712 160.944 51.4699 159.395 51.4699C157.536 51.4699 155.877 51.0827 154.417 50.3083C152.979 49.5339 151.85 48.4277 151.032 46.9895C150.235 45.5293 149.837 43.8257 149.837 41.8787C149.837 39.9317 150.235 38.2391 151.032 36.801C151.85 35.3407 152.979 34.2234 154.417 33.449C155.877 32.6747 157.536 32.2875 159.395 32.2875C161.253 32.2875 162.902 32.6747 164.34 33.449C165.8 34.2013 166.928 35.2854 167.725 36.7014C168.544 38.1174 168.953 39.7879 168.953 41.7127ZM161.486 39.9538C161.486 39.3343 161.287 38.8697 160.888 38.5599C160.49 38.228 159.992 38.0621 159.395 38.0621C158.089 38.0621 157.326 38.6927 157.105 39.9538H161.486Z" fill="white"/>
<path d="M56.1097 33.2499L55.224 32.7855L55.2196 32.794L56.1097 33.2499ZM60.1585 29.0351L60.6535 29.9041L60.6617 29.8993L60.1585 29.0351ZM71.7742 28.67L71.337 29.5694L71.3444 29.573L71.3519 29.5765L71.7742 28.67ZM75.6903 31.8892L74.8765 32.4705L74.8827 32.4789L75.6903 31.8892ZM77.7147 36.7678V37.7678H78.9091L78.6991 36.592L77.7147 36.7678ZM69.9488 36.7678L69.0394 37.1836L69.3064 37.7678H69.9488V36.7678ZM68.4222 34.9757L67.8545 35.7989L67.8706 35.81L67.8872 35.8205L68.4222 34.9757ZM63.245 35.7058L62.4586 35.088L62.454 35.0938L62.4495 35.0998L63.245 35.7058ZM63.245 43.2062L62.4495 43.8122L62.454 43.8181L62.4586 43.824L63.245 43.2062ZM68.4222 43.9695L68.9703 44.806L68.9769 44.8015L68.4222 43.9695ZM69.9488 42.1442V41.1442H69.3064L69.0394 41.7284L69.9488 42.1442ZM77.7147 42.1442L78.6991 42.32L78.9091 41.1442H77.7147V42.1442ZM75.6903 47.0227L74.8826 46.433L74.8765 46.4415L75.6903 47.0227ZM71.7742 50.2751L72.2012 51.1794L72.2065 51.1768L71.7742 50.2751ZM60.1585 49.91L59.6553 50.7743L59.6636 50.779L60.1585 49.91ZM56.1097 45.662L55.2196 46.1179L55.224 46.1265L56.1097 45.662ZM55.7158 39.456C55.7158 37.2691 56.1522 35.3604 56.9997 33.7058L55.2196 32.794C54.2086 34.768 53.7158 36.9966 53.7158 39.456H55.7158ZM56.9953 33.7143C57.8595 32.0662 59.0751 30.8031 60.6535 29.904L59.6636 28.1662C57.7463 29.2583 56.2625 30.8051 55.224 32.7855L56.9953 33.7143ZM60.6617 29.8993C62.2325 28.9846 64.1104 28.5085 66.3314 28.5085V26.5085C63.8177 26.5085 61.5803 27.0501 59.6553 28.1709L60.6617 29.8993ZM66.3314 28.5085C68.2381 28.5085 69.8992 28.8705 71.337 29.5694L72.2113 27.7707C70.4631 26.9209 68.4958 26.5085 66.3314 26.5085V28.5085ZM71.3519 29.5765C72.8172 30.259 73.9853 31.2227 74.8765 32.4705L76.504 31.308C75.404 29.768 73.9613 28.5856 72.1964 27.7635L71.3519 29.5765ZM74.8827 32.4789C75.8026 33.7389 76.4226 35.2204 76.7303 36.9436L78.6991 36.592C78.3431 34.5982 77.6134 32.8273 76.4979 31.2995L74.8827 32.4789ZM77.7147 35.7678H69.9488V37.7678H77.7147V35.7678ZM70.8583 36.352C70.4308 35.4168 69.7985 34.6636 68.9573 34.1309L67.8872 35.8205C68.3734 36.1285 68.7589 36.5701 69.0394 37.1836L70.8583 36.352ZM68.99 34.1525C68.1681 33.5857 67.2254 33.3119 66.1987 33.3119V35.3119C66.8534 35.3119 67.3931 35.4807 67.8545 35.7989L68.99 34.1525ZM66.1987 33.3119C64.67 33.3119 63.3888 33.9042 62.4586 35.088L64.0313 36.3236C64.5614 35.6489 65.2493 35.3119 66.1987 35.3119V33.3119ZM62.4495 35.0998C61.5697 36.2546 61.183 37.741 61.183 39.456H63.183C63.183 38.0292 63.5043 37.0155 64.0404 36.3118L62.4495 35.0998ZM61.183 39.456C61.183 41.171 61.5697 42.6574 62.4495 43.8122L64.0404 42.6001C63.5043 41.8964 63.183 40.8828 63.183 39.456H61.183ZM62.4586 43.824C63.3888 45.0078 64.67 45.6 66.1987 45.6V43.6C65.2493 43.6 64.5614 43.2631 64.0313 42.5884L62.4586 43.824ZM66.1987 45.6C67.2146 45.6 68.1502 45.3432 68.9702 44.8059L67.8742 43.133C67.411 43.4365 66.8642 43.6 66.1987 43.6V45.6ZM68.9769 44.8015C69.8058 44.2489 70.4325 43.4915 70.8583 42.5599L69.0394 41.7284C68.7572 42.3456 68.3661 42.805 67.8675 43.1374L68.9769 44.8015ZM69.9488 43.1442H77.7147V41.1442H69.9488V43.1442ZM76.7303 41.9684C76.4226 43.6915 75.8026 45.1731 74.8827 46.433L76.4979 47.6124C77.6134 46.0846 78.3431 44.3138 78.6991 42.32L76.7303 41.9684ZM74.8765 46.4415C73.9835 47.6917 72.812 48.6685 71.3418 49.3734L72.2065 51.1768C73.9665 50.333 75.4058 49.1415 76.504 47.604L74.8765 46.4415ZM71.3471 49.3709C69.9069 50.051 68.2421 50.4035 66.3314 50.4035V52.4035C68.4917 52.4035 70.4554 52.0038 72.2012 51.1794L71.3471 49.3709ZM66.3314 50.4035C64.1067 50.4035 62.2258 49.9368 60.6535 49.0411L59.6636 50.779C61.587 51.8746 63.8213 52.4035 66.3314 52.4035V50.4035ZM60.6617 49.0459C59.0786 48.124 57.8605 46.8476 56.9953 45.1976L55.224 46.1265C56.2616 48.105 57.7427 49.6606 59.6553 50.7742L60.6617 49.0459ZM56.9997 45.2062C56.1522 43.5516 55.7158 41.6429 55.7158 39.456H53.7158C53.7158 41.9153 54.2086 44.144 55.2196 46.1179L56.9997 45.2062ZM87.2372 35.9713H86.2372V39.1666L88.0588 36.5414L87.2372 35.9713ZM89.9918 33.3827L90.5011 34.2432L90.5075 34.2394L90.5139 34.2355L89.9918 33.3827ZM93.3769 32.387H94.3769V31.387H93.3769V32.387ZM93.3769 40.2525V41.2525H94.3769V40.2525H93.3769ZM88.1996 40.9826L87.6083 40.1762L87.6017 40.181L87.5952 40.1859L88.1996 40.9826ZM87.2372 51.2375V52.2375H88.2372V51.2375H87.2372ZM79.8696 51.2375H78.8696V52.2375H79.8696V51.2375ZM79.8696 32.5198V31.5198H78.8696V32.5198H79.8696ZM87.2372 32.5198H88.2372V31.5198H87.2372V32.5198ZM88.0588 36.5414C88.733 35.5697 89.5466 34.8081 90.5011 34.2432L89.4824 32.5221C88.2687 33.2404 87.2459 34.2047 86.4156 35.4012L88.0588 36.5414ZM90.5139 34.2355C91.4546 33.6596 92.404 33.387 93.3769 33.387V31.387C92.0046 31.387 90.6972 31.7782 89.4696 32.5298L90.5139 34.2355ZM92.3769 32.387V40.2525H94.3769V32.387H92.3769ZM93.3769 39.2525H91.2861V41.2525H93.3769V39.2525ZM91.2861 39.2525C89.8125 39.2525 88.5263 39.503 87.6083 40.1762L88.791 41.789C89.2004 41.4888 89.9719 41.2525 91.2861 41.2525V39.2525ZM87.5952 40.1859C86.5933 40.946 86.2372 42.1918 86.2372 43.5712H88.2372C88.2372 42.4726 88.5227 41.9927 88.804 41.7793L87.5952 40.1859ZM86.2372 43.5712V51.2375H88.2372V43.5712H86.2372ZM87.2372 50.2375H79.8696V52.2375H87.2372V50.2375ZM80.8696 51.2375V32.5198H78.8696V51.2375H80.8696ZM79.8696 33.5198H87.2372V31.5198H79.8696V33.5198ZM86.2372 32.5198V35.9713H88.2372V32.5198H86.2372ZM112.884 43.173V44.173H113.752L113.874 43.3144L112.884 43.173ZM101.036 43.173V42.173H99.9656L100.039 43.2413L101.036 43.173ZM104.787 44.5005V43.5005H104.16L103.887 44.0642L104.787 44.5005ZM112.586 44.5005L113.566 44.6966L113.806 43.5005H112.586V44.5005ZM110.893 48.0847L110.117 47.4541L110.116 47.456L110.893 48.0847ZM107.674 50.5738L108.096 51.4804L108.103 51.4772L107.674 50.5738ZM98.4478 50.3083L97.9737 51.1888L97.9793 51.1918L98.4478 50.3083ZM95.0627 46.9895L94.1848 47.4684L94.1892 47.4764L94.1936 47.4842L95.0627 46.9895ZM95.0627 36.801L94.1904 36.312L94.1879 36.3165L95.0627 36.801ZM98.4478 33.449L97.9793 32.5656L97.9737 32.5686L98.4478 33.449ZM108.371 33.449L107.897 34.3295L107.905 34.3338L107.913 34.338L108.371 33.449ZM111.756 36.7014L110.884 37.1917L110.89 37.2019L111.756 36.7014ZM105.517 39.9538V40.9538H106.517V39.9538H105.517ZM104.919 38.5599L104.279 39.3281L104.292 39.3389L104.305 39.3493L104.919 38.5599ZM101.136 39.9538L100.151 39.781L99.9453 40.9538H101.136V39.9538ZM111.984 41.7127C111.984 42.1782 111.954 42.6175 111.894 43.0316L113.874 43.3144C113.948 42.7992 113.984 42.265 113.984 41.7127H111.984ZM112.884 42.173H101.036V44.173H112.884V42.173ZM100.039 43.2413C100.101 44.1531 100.33 44.9995 100.858 45.6312C101.42 46.3036 102.203 46.5957 103.061 46.5957V44.5957C102.679 44.5957 102.506 44.484 102.393 44.3488C102.246 44.1729 102.082 43.808 102.034 43.1047L100.039 43.2413ZM103.061 46.5957C103.616 46.5957 104.152 46.4666 104.626 46.1662C105.098 45.8665 105.444 45.4368 105.686 44.9368L103.887 44.0642C103.775 44.2943 103.657 44.4122 103.554 44.4775C103.452 44.5422 103.302 44.5957 103.061 44.5957V46.5957ZM104.787 45.5005H112.586V43.5005H104.787V45.5005ZM111.605 44.3044C111.372 45.4708 110.879 46.5168 110.117 47.4541L111.669 48.7153C112.633 47.5287 113.269 46.1852 113.566 44.6966L111.605 44.3044ZM110.116 47.456C109.376 48.3701 108.426 49.1099 107.245 49.6704L108.103 51.4772C109.532 50.7987 110.728 49.8791 111.671 48.7135L110.116 47.456ZM107.252 49.6672C106.113 50.1975 104.843 50.4699 103.426 50.4699V52.4699C105.107 52.4699 106.669 52.1449 108.096 51.4804L107.252 49.6672ZM103.426 50.4699C101.71 50.4699 100.215 50.1136 98.9163 49.4248L97.9793 51.1918C99.601 52.0518 101.425 52.4699 103.426 52.4699V50.4699ZM98.9219 49.4278C97.6513 48.7437 96.6588 47.7721 95.9318 46.4949L94.1936 47.4842C95.1038 49.0832 96.3681 50.3242 97.9737 51.1888L98.9219 49.4278ZM95.9406 46.5107C95.2369 45.2206 94.868 43.687 94.868 41.8787H92.868C92.868 43.9643 93.2955 45.838 94.1848 47.4684L95.9406 46.5107ZM94.868 41.8787C94.868 40.0699 95.2371 38.5502 95.9375 37.2855L94.1879 36.3165C93.2954 37.928 92.868 39.7935 92.868 41.8787H94.868ZM95.935 37.29C96.6632 35.991 97.6554 35.0115 98.9219 34.3295L97.9737 32.5686C96.3641 33.4353 95.0995 34.6904 94.1904 36.312L95.935 37.29ZM98.9163 34.3325C100.215 33.6438 101.71 33.2875 103.426 33.2875V31.2875C101.425 31.2875 99.601 31.7056 97.9793 32.5656L98.9163 34.3325ZM103.426 33.2875C105.142 33.2875 106.623 33.6439 107.897 34.3295L108.845 32.5686C107.242 31.7055 105.427 31.2875 103.426 31.2875V33.2875ZM107.913 34.338C109.201 35.0017 110.185 35.9482 110.884 37.1917L112.628 36.2112C111.734 34.6227 110.461 33.4009 108.829 32.5601L107.913 34.338ZM110.89 37.2019C111.607 38.4408 111.984 39.9323 111.984 41.7127H113.984C113.984 39.6434 113.543 37.794 112.622 36.2009L110.89 37.2019ZM106.517 39.9538C106.517 39.1037 106.231 38.313 105.533 37.7706L104.305 39.3493C104.405 39.4264 104.517 39.5649 104.517 39.9538H106.517ZM105.56 37.7917C104.955 37.2876 104.22 37.0621 103.426 37.0621V39.0621C103.827 39.0621 104.088 39.1685 104.279 39.3281L105.56 37.7917ZM103.426 37.0621C102.616 37.0621 101.849 37.2593 101.238 37.7641C100.624 38.2709 100.291 38.9861 100.151 39.781L102.121 40.1266C102.203 39.6603 102.361 39.4298 102.511 39.306C102.664 39.1802 102.931 39.0621 103.426 39.0621V37.0621ZM101.136 40.9538H105.517V38.9538H101.136V40.9538ZM114.816 36.7678L113.911 36.3427L113.908 36.3487L114.816 36.7678ZM117.604 33.449L118.144 34.2908L118.155 34.2835L117.604 33.449ZM124.706 33.0508L124.208 33.9177L124.216 33.9224L124.224 33.927L124.706 33.0508ZM126.731 35.0752L125.85 35.5493L127.731 35.0752H126.731ZM126.731 32.5198V31.5198H125.731V32.5198H126.731ZM134.065 32.5198H135.065V31.5198H134.065V32.5198ZM134.065 51.2375V52.2375H135.065V51.2375H134.065ZM126.731 51.2375H125.731V52.2375H126.731V51.2375ZM126.731 48.6821H127.731L125.85 48.208L126.731 48.6821ZM124.706 50.7397L125.188 51.616L125.196 51.6114L125.205 51.6066L124.706 50.7397ZM117.604 50.3415L117.053 51.176L117.064 51.1832L117.604 50.3415ZM114.816 47.0227L113.906 47.4365L113.91 47.4449L113.914 47.4532L114.816 47.0227ZM125.967 39.5555L126.703 38.8785V38.8785L125.967 39.5555ZM122.051 39.5555L121.315 38.8785V38.8785L122.051 39.5555ZM114.821 41.8787C114.821 40.02 115.134 38.4657 115.724 37.1869L113.908 36.3487C113.171 37.9462 112.821 39.7991 112.821 41.8787H114.821ZM115.721 37.1929C116.34 35.8757 117.154 34.9261 118.144 34.2907L117.064 32.6074C115.709 33.4765 114.664 34.7394 113.911 36.3427L115.721 37.1929ZM118.155 34.2835C119.158 33.6215 120.281 33.2875 121.553 33.2875V31.2875C119.905 31.2875 118.396 31.7279 117.053 32.6146L118.155 34.2835ZM121.553 33.2875C122.629 33.2875 123.501 33.5114 124.208 33.9177L125.205 32.1839C124.141 31.5724 122.911 31.2875 121.553 31.2875V33.2875ZM124.224 33.927C124.946 34.3239 125.48 34.8615 125.85 35.5493L127.611 34.6011C127.052 33.5632 126.236 32.7512 125.188 32.1746L124.224 33.927ZM127.731 35.0752V32.5198H125.731V35.0752H127.731ZM126.731 33.5198H134.065V31.5198H126.731V33.5198ZM133.065 32.5198V51.2375H135.065V32.5198H133.065ZM134.065 50.2375H126.731V52.2375H134.065V50.2375ZM127.731 51.2375V48.6821H125.731V51.2375H127.731ZM125.85 48.208C125.478 48.8999 124.938 49.4527 124.208 49.8728L125.205 51.6066C126.244 51.009 127.054 50.1901 127.611 49.1562L125.85 48.208ZM124.224 49.8635C123.514 50.254 122.636 50.4699 121.553 50.4699V52.4699C122.904 52.4699 124.128 52.199 125.188 51.616L124.224 49.8635ZM121.553 50.4699C120.275 50.4699 119.148 50.1436 118.144 49.4998L117.064 51.1832C118.406 52.0439 119.911 52.4699 121.553 52.4699V50.4699ZM118.155 49.507C117.154 48.8457 116.337 47.8887 115.719 46.5923L113.914 47.4532C114.667 49.033 115.709 50.2885 117.053 51.1759L118.155 49.507ZM115.727 46.6089C115.134 45.3047 114.821 43.7368 114.821 41.8787H112.821C112.821 43.9588 113.171 45.8203 113.906 47.4365L115.727 46.6089ZM127.731 41.8787C127.731 40.7155 127.431 39.6695 126.703 38.8785L125.231 40.2326C125.521 40.5479 125.731 41.0506 125.731 41.8787H127.731ZM126.703 38.8785C125.993 38.1061 125.067 37.7259 124.009 37.7259V39.7259C124.545 39.7259 124.924 39.8987 125.231 40.2326L126.703 38.8785ZM124.009 37.7259C122.952 37.7259 122.026 38.1061 121.315 38.8785L122.787 40.2326C123.094 39.8987 123.474 39.7259 124.009 39.7259V37.7259ZM121.315 38.8785C120.587 39.6695 120.288 40.7155 120.288 41.8787H122.288C122.288 41.0506 122.497 40.5479 122.787 40.2326L121.315 38.8785ZM120.288 41.8787C120.288 43.0418 120.587 44.0879 121.315 44.8789L122.787 43.5247C122.497 43.2095 122.288 42.7068 122.288 41.8787H120.288ZM121.315 44.8789C122.026 45.6512 122.952 46.0315 124.009 46.0315V44.0315C123.474 44.0315 123.094 43.8586 122.787 43.5247L121.315 44.8789ZM124.009 46.0315C125.067 46.0315 125.993 45.6512 126.703 44.8789L125.231 43.5247C124.924 43.8586 124.545 44.0315 124.009 44.0315V46.0315ZM126.703 44.8789C127.431 44.0879 127.731 43.0418 127.731 41.8787H125.731C125.731 42.7068 125.521 43.2095 125.231 43.5247L126.703 44.8789ZM148.524 44.9651H149.524V43.9651H148.524V44.9651ZM148.524 51.2375V52.2375H149.524V51.2375H148.524ZM138.037 38.6595H139.037V37.6595H138.037V38.6595ZM135.714 38.6595H134.714V39.6595H135.714V38.6595ZM135.714 32.5198V31.5198H134.714V32.5198H135.714ZM138.037 32.5198V33.5198H139.037V32.5198H138.037ZM138.037 28.0063V27.0063H137.037V28.0063H138.037ZM145.405 28.0063H146.405V27.0063H145.405V28.0063ZM145.405 32.5198H144.405V33.5198H145.405V32.5198ZM148.458 32.5198H149.458V31.5198H148.458V32.5198ZM148.458 38.6595V39.6595H149.458V38.6595H148.458ZM145.405 38.6595V37.6595H144.405V38.6595H145.405ZM145.703 44.6664L144.996 45.3735L145.015 45.3921L145.034 45.4097L145.703 44.6664ZM147.524 44.9651V51.2375H149.524V44.9651H147.524ZM148.524 50.2375H145.737V52.2375H148.524V50.2375ZM145.737 50.2375C143.323 50.2375 141.697 49.6373 140.668 48.6123C139.639 47.5881 139.037 45.9714 139.037 43.5712H137.037C137.037 46.2819 137.719 48.4984 139.256 50.0296C140.794 51.5601 143.017 52.2375 145.737 52.2375V50.2375ZM139.037 43.5712V38.6595H137.037V43.5712H139.037ZM138.037 37.6595H135.714V39.6595H138.037V37.6595ZM136.714 38.6595V32.5198H134.714V38.6595H136.714ZM135.714 33.5198H138.037V31.5198H135.714V33.5198ZM139.037 32.5198V28.0063H137.037V32.5198H139.037ZM138.037 29.0063H145.405V27.0063H138.037V29.0063ZM144.405 28.0063V32.5198H146.405V28.0063H144.405ZM145.405 33.5198H148.458V31.5198H145.405V33.5198ZM147.458 32.5198V38.6595H149.458V32.5198H147.458ZM148.458 37.6595H145.405V39.6595H148.458V37.6595ZM144.405 38.6595V43.704H146.405V38.6595H144.405ZM144.405 43.704C144.405 44.2648 144.527 44.9037 144.996 45.3735L146.411 43.9593C146.446 43.9947 146.445 44.0152 146.435 43.9801C146.422 43.9405 146.405 43.8546 146.405 43.704H144.405ZM145.034 45.4097C145.525 45.8515 146.179 45.9651 146.765 45.9651V43.9651C146.586 43.9651 146.471 43.9463 146.406 43.9278C146.342 43.91 146.345 43.8986 146.372 43.9231L145.034 45.4097ZM146.765 45.9651H148.524V43.9651H146.765V45.9651ZM168.853 43.173V44.173H169.721L169.843 43.3144L168.853 43.173ZM157.005 43.173V42.173H155.935L156.008 43.2413L157.005 43.173ZM160.756 44.5005V43.5005H160.129L159.856 44.0642L160.756 44.5005ZM168.555 44.5005L169.535 44.6966L169.774 43.5005H168.555V44.5005ZM166.862 48.0847L166.086 47.4541L166.084 47.456L166.862 48.0847ZM163.643 50.5738L164.065 51.4804L164.072 51.4772L163.643 50.5738ZM154.417 50.3083L153.943 51.1888L153.948 51.1918L154.417 50.3083ZM151.032 46.9895L150.154 47.4684L150.158 47.4764L150.163 47.4842L151.032 46.9895ZM151.032 36.801L150.159 36.312L150.157 36.3165L151.032 36.801ZM154.417 33.449L153.948 32.5656L153.943 32.5686L154.417 33.449ZM164.34 33.449L163.866 34.3295L163.874 34.3338L163.882 34.338L164.34 33.449ZM167.725 36.7014L166.853 37.1917L166.859 37.2019L167.725 36.7014ZM161.486 39.9538V40.9538H162.486V39.9538H161.486ZM160.888 38.5599L160.248 39.3281L160.261 39.3389L160.274 39.3493L160.888 38.5599ZM157.105 39.9538L156.12 39.781L155.914 40.9538H157.105V39.9538ZM167.953 41.7127C167.953 42.1782 167.923 42.6175 167.863 43.0316L169.843 43.3144C169.917 42.7992 169.953 42.265 169.953 41.7127H167.953ZM168.853 42.173H157.005V44.173H168.853V42.173ZM156.008 43.2413C156.07 44.1531 156.299 44.9995 156.827 45.6312C157.389 46.3036 158.172 46.5957 159.03 46.5957V44.5957C158.648 44.5957 158.475 44.484 158.362 44.3488C158.215 44.1729 158.051 43.808 158.003 43.1047L156.008 43.2413ZM159.03 46.5957C159.585 46.5957 160.121 46.4666 160.594 46.1662C161.067 45.8665 161.413 45.4368 161.655 44.9368L159.856 44.0642C159.744 44.2943 159.626 44.4122 159.523 44.4775C159.421 44.5422 159.271 44.5957 159.03 44.5957V46.5957ZM160.756 45.5005H168.555V43.5005H160.756V45.5005ZM167.574 44.3044C167.341 45.4708 166.848 46.5168 166.086 47.4541L167.638 48.7153C168.602 47.5287 169.237 46.1852 169.535 44.6966L167.574 44.3044ZM166.084 47.456C165.345 48.3701 164.395 49.1099 163.214 49.6704L164.072 51.4772C165.501 50.7987 166.697 49.8791 167.64 48.7135L166.084 47.456ZM163.221 49.6672C162.082 50.1975 160.812 50.4699 159.395 50.4699V52.4699C161.076 52.4699 162.637 52.1449 164.065 51.4804L163.221 49.6672ZM159.395 50.4699C157.679 50.4699 156.184 50.1136 154.885 49.4248L153.948 51.1918C155.57 52.0518 157.394 52.4699 159.395 52.4699V50.4699ZM154.891 49.4278C153.62 48.7437 152.628 47.7721 151.901 46.4949L150.163 47.4842C151.073 49.0832 152.337 50.3242 153.943 51.1888L154.891 49.4278ZM151.91 46.5107C151.206 45.2206 150.837 43.687 150.837 41.8787H148.837C148.837 43.9643 149.264 45.838 150.154 47.4684L151.91 46.5107ZM150.837 41.8787C150.837 40.0699 151.206 38.5502 151.906 37.2855L150.157 36.3165C149.264 37.928 148.837 39.7935 148.837 41.8787H150.837ZM151.904 37.29C152.632 35.991 153.624 35.0115 154.891 34.3295L153.943 32.5686C152.333 33.4353 151.068 34.6904 150.159 36.312L151.904 37.29ZM154.885 34.3325C156.184 33.6438 157.679 33.2875 159.395 33.2875V31.2875C157.394 31.2875 155.57 31.7056 153.948 32.5656L154.885 34.3325ZM159.395 33.2875C161.111 33.2875 162.592 33.6439 163.866 34.3295L164.814 32.5686C163.211 31.7055 161.396 31.2875 159.395 31.2875V33.2875ZM163.882 34.338C165.17 35.0017 166.154 35.9482 166.853 37.1917L168.596 36.2112C167.703 34.6227 166.43 33.4009 164.798 32.5601L163.882 34.338ZM166.859 37.2019C167.575 38.4408 167.953 39.9323 167.953 41.7127H169.953C169.953 39.6434 169.512 37.794 168.591 36.2009L166.859 37.2019ZM162.486 39.9538C162.486 39.1037 162.2 38.313 161.502 37.7706L160.274 39.3493C160.373 39.4264 160.486 39.5649 160.486 39.9538H162.486ZM161.528 37.7917C160.924 37.2876 160.189 37.0621 159.395 37.0621V39.0621C159.796 39.0621 160.056 39.1685 160.248 39.3281L161.528 37.7917ZM159.395 37.0621C158.584 37.0621 157.818 37.2593 157.206 37.7641C156.593 38.2709 156.259 38.9861 156.12 39.781L158.09 40.1266C158.172 39.6603 158.33 39.4298 158.48 39.306C158.632 39.1802 158.9 39.0621 159.395 39.0621V37.0621ZM157.105 40.9538H161.486V38.9538H157.105V40.9538Z" fill="url(#paint2_linear_22_95735)" mask="url(#path-4-outside-1_22_95735)"/>
</g>
<defs>
<filter id="filter0_ddd_22_95735" x="0.137451" y="0.9375" width="223.725" height="80.5251" filterUnits="userSpaceOnUse" color-interpolation-filters="sRGB">
<feFlood flood-opacity="0" result="BackgroundImageFix"/>
<feColorMatrix in="SourceAlpha" type="matrix" values="0 0 0 0 0 0 0 0 0 0 0 0 0 0 0 0 0 0 127 0" result="hardAlpha"/>
<feOffset dy="1"/>
<feGaussianBlur stdDeviation="2.5"/>
<feColorMatrix type="matrix" values="0 0 0 0 0 0 0 0 0 0 0 0 0 0 0 0 0 0 0.2 0"/>
<feBlend mode="normal" in2="BackgroundImageFix" result="effect1_dropShadow_22_95735"/>
<feColorMatrix in="SourceAlpha" type="matrix" values="0 0 0 0 0 0 0 0 0 0 0 0 0 0 0 0 0 0 127 0" result="hardAlpha"/>
<feOffset dy="3"/>
<feGaussianBlur stdDeviation="2"/>
<feColorMatrix type="matrix" values="0 0 0 0 0 0 0 0 0 0 0 0 0 0 0 0 0 0 0.12 0"/>
<feBlend mode="normal" in2="effect1_dropShadow_22_95735" result="effect2_dropShadow_22_95735"/>
<feColorMatrix in="SourceAlpha" type="matrix" values="0 0 0 0 0 0 0 0 0 0 0 0 0 0 0 0 0 0 127 0" result="hardAlpha"/>
<feOffset dy="2"/>
<feGaussianBlur stdDeviation="2"/>
<feColorMatrix type="matrix" values="0 0 0 0 0 0 0 0 0 0 0 0 0 0 0 0 0 0 0.14 0"/>
<feBlend mode="normal" in2="effect2_dropShadow_22_95735" result="effect3_dropShadow_22_95735"/>
<feBlend mode="normal" in="SourceGraphic" in2="effect3_dropShadow_22_95735" result="shape"/>
</filter>
<filter id="filter1_ddd_22_95735" x="47.2783" y="21.3585" width="129.112" height="40.1239" filterUnits="userSpaceOnUse" color-interpolation-filters="sRGB">
<feFlood flood-opacity="0" result="BackgroundImageFix"/>
<feColorMatrix in="SourceAlpha" type="matrix" values="0 0 0 0 0 0 0 0 0 0 0 0 0 0 0 0 0 0 127 0" result="hardAlpha"/>
<feOffset dy="1.2875"/>
<feGaussianBlur stdDeviation="3.21875"/>
<feColorMatrix type="matrix" values="0 0 0 0 0.532764 0 0 0 0 0.0516202 0 0 0 0 0.0516202 0 0 0 0.2 0"/>
<feBlend mode="normal" in2="BackgroundImageFix" result="effect1_dropShadow_22_95735"/>
<feColorMatrix in="SourceAlpha" type="matrix" values="0 0 0 0 0 0 0 0 0 0 0 0 0 0 0 0 0 0 127 0" result="hardAlpha"/>
<feOffset dy="3.8625"/>
<feGaussianBlur stdDeviation="2.575"/>
<feColorMatrix type="matrix" values="0 0 0 0 0.482764 0 0 0 0 0.0467756 0 0 0 0 0.0467756 0 0 0 0.12 0"/>
<feBlend mode="normal" in2="effect1_dropShadow_22_95735" result="effect2_dropShadow_22_95735"/>
<feColorMatrix in="SourceAlpha" type="matrix" values="0 0 0 0 0 0 0 0 0 0 0 0 0 0 0 0 0 0 127 0" result="hardAlpha"/>
<feOffset dy="2.575"/>
<feGaussianBlur stdDeviation="2.575"/>
<feColorMatrix type="matrix" values="0 0 0 0 0.357764 0 0 0 0 0.100254 0 0 0 0 0.100254 0 0 0 0.14 0"/>
<feBlend mode="normal" in2="effect2_dropShadow_22_95735" result="effect3_dropShadow_22_95735"/>
<feBlend mode="normal" in="SourceGraphic" in2="effect3_dropShadow_22_95735" result="shape"/>
</filter>
<linearGradient id="paint0_linear_22_95735" x1="112" y1="8.80005" x2="112" y2="70.6001" gradientUnits="userSpaceOnUse">
<stop offset="0.195"/>
<stop offset="1" stop-color="white" stop-opacity="0"/>
</linearGradient>
<linearGradient id="paint1_linear_22_95735" x1="112" y1="8.80005" x2="112" y2="70.6001" gradientUnits="userSpaceOnUse">
<stop stop-color="white"/>
<stop offset="1"/>
</linearGradient>
<linearGradient id="paint2_linear_22_95735" x1="111.423" y1="14.2375" x2="111.423" y2="64.2375" gradientUnits="userSpaceOnUse">
<stop stop-color="#E58200"/>
<stop offset="1" stop-color="#835900" stop-opacity="0"/>
</linearGradient>
<clipPath id="clip0_22_95735">
<rect x="9" y="8.80005" width="206" height="61.8" rx="30.9" fill="white"/>
</clipPath>
</defs>
</svg>
