<svg width="224" height="81" viewBox="0 0 224 81" fill="none" xmlns="http://www.w3.org/2000/svg">
<g filter="url(#filter0_ddd_22_95615)">
<g clip-path="url(#clip0_22_95615)">
<rect x="12.8625" y="11.8625" width="198.275" height="54.075" rx="27.0375" fill="#FFAE02"/>
<rect x="12.8625" y="11.8625" width="198.275" height="54.075" rx="27.0375" fill="url(#paint0_linear_22_95615)" fill-opacity="0.25" style="mix-blend-mode:soft-light"/>
<rect x="12.8625" y="11.8625" width="198.275" height="54.075" rx="27.0375" stroke="url(#paint1_linear_22_95615)" stroke-width="7.725" style="mix-blend-mode:soft-light"/>
</g>
<rect x="7.06875" y="6.06875" width="209.863" height="65.6625" rx="32.8313" stroke="#0A0A0A" stroke-opacity="0.35" stroke-width="3.8625"/>
</g>
<g filter="url(#filter1_ddd_22_95615)">
<mask id="path-4-outside-1_22_95615" maskUnits="userSpaceOnUse" x="55.423" y="24.4375" width="113" height="27" fill="black">
<rect fill="white" x="55.423" y="24.4375" width="113" height="27"/>
<path d="M56.4245 38.0109C56.4245 35.7578 56.8751 33.7515 57.7763 31.9919C58.6991 30.2323 60.008 28.8697 61.7032 27.9041C63.3984 26.917 65.3941 26.4234 67.6901 26.4234C69.6643 26.4234 71.4238 26.799 72.9688 27.55C74.5353 28.2796 75.8013 29.3203 76.767 30.6722C77.7541 32.0241 78.4085 33.6012 78.7304 35.4037H71.1985C70.8552 34.6527 70.3617 34.0733 69.7179 33.6656C69.0956 33.2365 68.3768 33.0219 67.5613 33.0219C66.3597 33.0219 65.4048 33.4725 64.6967 34.3737C64.01 35.275 63.6667 36.4874 63.6667 38.0109C63.6667 39.5345 64.01 40.7469 64.6967 41.6481C65.4048 42.5494 66.3597 43 67.5613 43C68.3768 43 69.0956 42.7961 69.7179 42.3884C70.3617 41.9593 70.8552 41.3692 71.1985 40.6181H78.7304C78.4085 42.4206 77.7541 43.9978 76.767 45.3497C75.8013 46.7016 74.5353 47.753 72.9688 48.5041C71.4238 49.2336 69.6643 49.5984 67.6901 49.5984C65.3941 49.5984 63.3984 49.1156 61.7032 48.15C60.008 47.1629 58.6991 45.7896 57.7763 44.03C56.8751 42.2704 56.4245 40.2641 56.4245 38.0109ZM87.966 34.6312C88.6955 33.5798 89.5861 32.7429 90.6375 32.1206C91.689 31.4769 92.7834 31.155 93.9206 31.155V38.7834H91.8928C90.541 38.7834 89.5431 39.0195 88.8994 39.4916C88.2771 39.9636 87.966 40.8005 87.966 42.0022V49.4375H80.8203V31.2837H87.966V34.6312ZM112.937 40.1997C112.937 40.6932 112.905 41.1653 112.84 41.6159H101.349C101.457 43.1824 102.111 43.9656 103.313 43.9656C104.085 43.9656 104.643 43.6116 104.987 42.9034H112.551C112.293 44.1909 111.746 45.3497 110.909 46.3797C110.094 47.3882 109.053 48.1929 107.787 48.7937C106.542 49.3731 105.169 49.6628 103.667 49.6628C101.864 49.6628 100.255 49.2873 98.8388 48.5362C97.444 47.7852 96.3496 46.7123 95.5557 45.3175C94.7832 43.9012 94.3969 42.249 94.3969 40.3606C94.3969 38.4723 94.7832 36.8307 95.5557 35.4359C96.3496 34.0197 97.444 32.936 98.8388 32.185C100.255 31.434 101.864 31.0584 103.667 31.0584C105.469 31.0584 107.068 31.434 108.463 32.185C109.879 32.9146 110.973 33.966 111.746 35.3394C112.54 36.7127 112.937 38.3328 112.937 40.1997ZM105.695 38.4937C105.695 37.8929 105.502 37.4423 105.115 37.1419C104.729 36.82 104.246 36.6591 103.667 36.6591C102.401 36.6591 101.661 37.2706 101.446 38.4937H105.695ZM113.748 40.3606C113.748 38.4508 114.07 36.7985 114.714 35.4037C115.379 33.9875 116.28 32.9146 117.418 32.185C118.555 31.434 119.832 31.0584 121.248 31.0584C122.428 31.0584 123.448 31.3052 124.306 31.7987C125.164 32.2708 125.819 32.9253 126.269 33.7622V31.2837H133.383V49.4375H126.269V46.9591C125.819 47.7959 125.164 48.4611 124.306 48.9547C123.448 49.4268 122.428 49.6628 121.248 49.6628C119.832 49.6628 118.555 49.298 117.418 48.5684C116.28 47.8174 115.379 46.7445 114.714 45.3497C114.07 43.9334 113.748 42.2704 113.748 40.3606ZM126.269 40.3606C126.269 39.395 126.023 38.644 125.529 38.1075C125.035 37.571 124.402 37.3028 123.63 37.3028C122.857 37.3028 122.224 37.571 121.731 38.1075C121.237 38.644 120.991 39.395 120.991 40.3606C120.991 41.3262 121.237 42.0773 121.731 42.6137C122.224 43.1502 122.857 43.4184 123.63 43.4184C124.402 43.4184 125.035 43.1502 125.529 42.6137C126.023 42.0773 126.269 41.3262 126.269 40.3606ZM147.406 43.3541V49.4375H144.703C139.724 49.4375 137.235 46.9591 137.235 42.0022V37.2384H134.982V31.2837H137.235V26.9062H144.381V31.2837H147.342V37.2384H144.381V42.1309C144.381 42.5601 144.477 42.8712 144.671 43.0644C144.885 43.2575 145.228 43.3541 145.701 43.3541H147.406ZM167.219 40.1997C167.219 40.6932 167.187 41.1653 167.123 41.6159H155.632C155.739 43.1824 156.394 43.9656 157.595 43.9656C158.368 43.9656 158.926 43.6116 159.269 42.9034H166.833C166.576 44.1909 166.028 45.3497 165.192 46.3797C164.376 47.3882 163.335 48.1929 162.069 48.7937C160.825 49.3731 159.451 49.6628 157.949 49.6628C156.147 49.6628 154.538 49.2873 153.121 48.5362C151.726 47.7852 150.632 46.7123 149.838 45.3175C149.066 43.9012 148.679 42.249 148.679 40.3606C148.679 38.4723 149.066 36.8307 149.838 35.4359C150.632 34.0197 151.726 32.936 153.121 32.185C154.538 31.434 156.147 31.0584 157.949 31.0584C159.752 31.0584 161.351 31.434 162.745 32.185C164.162 32.9146 165.256 33.966 166.028 35.3394C166.822 36.7127 167.219 38.3328 167.219 40.1997ZM159.977 38.4937C159.977 37.8929 159.784 37.4423 159.398 37.1419C159.012 36.82 158.529 36.6591 157.949 36.6591C156.683 36.6591 155.943 37.2706 155.728 38.4937H159.977Z"/>
</mask>
<path d="M56.4245 38.0109C56.4245 35.7578 56.8751 33.7515 57.7763 31.9919C58.6991 30.2323 60.008 28.8697 61.7032 27.9041C63.3984 26.917 65.3941 26.4234 67.6901 26.4234C69.6643 26.4234 71.4238 26.799 72.9688 27.55C74.5353 28.2796 75.8013 29.3203 76.767 30.6722C77.7541 32.0241 78.4085 33.6012 78.7304 35.4037H71.1985C70.8552 34.6527 70.3617 34.0733 69.7179 33.6656C69.0956 33.2365 68.3768 33.0219 67.5613 33.0219C66.3597 33.0219 65.4048 33.4725 64.6967 34.3737C64.01 35.275 63.6667 36.4874 63.6667 38.0109C63.6667 39.5345 64.01 40.7469 64.6967 41.6481C65.4048 42.5494 66.3597 43 67.5613 43C68.3768 43 69.0956 42.7961 69.7179 42.3884C70.3617 41.9593 70.8552 41.3692 71.1985 40.6181H78.7304C78.4085 42.4206 77.7541 43.9978 76.767 45.3497C75.8013 46.7016 74.5353 47.753 72.9688 48.5041C71.4238 49.2336 69.6643 49.5984 67.6901 49.5984C65.3941 49.5984 63.3984 49.1156 61.7032 48.15C60.008 47.1629 58.6991 45.7896 57.7763 44.03C56.8751 42.2704 56.4245 40.2641 56.4245 38.0109ZM87.966 34.6312C88.6955 33.5798 89.5861 32.7429 90.6375 32.1206C91.689 31.4769 92.7834 31.155 93.9206 31.155V38.7834H91.8928C90.541 38.7834 89.5431 39.0195 88.8994 39.4916C88.2771 39.9636 87.966 40.8005 87.966 42.0022V49.4375H80.8203V31.2837H87.966V34.6312ZM112.937 40.1997C112.937 40.6932 112.905 41.1653 112.84 41.6159H101.349C101.457 43.1824 102.111 43.9656 103.313 43.9656C104.085 43.9656 104.643 43.6116 104.987 42.9034H112.551C112.293 44.1909 111.746 45.3497 110.909 46.3797C110.094 47.3882 109.053 48.1929 107.787 48.7937C106.542 49.3731 105.169 49.6628 103.667 49.6628C101.864 49.6628 100.255 49.2873 98.8388 48.5362C97.444 47.7852 96.3496 46.7123 95.5557 45.3175C94.7832 43.9012 94.3969 42.249 94.3969 40.3606C94.3969 38.4723 94.7832 36.8307 95.5557 35.4359C96.3496 34.0197 97.444 32.936 98.8388 32.185C100.255 31.434 101.864 31.0584 103.667 31.0584C105.469 31.0584 107.068 31.434 108.463 32.185C109.879 32.9146 110.973 33.966 111.746 35.3394C112.54 36.7127 112.937 38.3328 112.937 40.1997ZM105.695 38.4937C105.695 37.8929 105.502 37.4423 105.115 37.1419C104.729 36.82 104.246 36.6591 103.667 36.6591C102.401 36.6591 101.661 37.2706 101.446 38.4937H105.695ZM113.748 40.3606C113.748 38.4508 114.07 36.7985 114.714 35.4037C115.379 33.9875 116.28 32.9146 117.418 32.185C118.555 31.434 119.832 31.0584 121.248 31.0584C122.428 31.0584 123.448 31.3052 124.306 31.7987C125.164 32.2708 125.819 32.9253 126.269 33.7622V31.2837H133.383V49.4375H126.269V46.9591C125.819 47.7959 125.164 48.4611 124.306 48.9547C123.448 49.4268 122.428 49.6628 121.248 49.6628C119.832 49.6628 118.555 49.298 117.418 48.5684C116.28 47.8174 115.379 46.7445 114.714 45.3497C114.07 43.9334 113.748 42.2704 113.748 40.3606ZM126.269 40.3606C126.269 39.395 126.023 38.644 125.529 38.1075C125.035 37.571 124.402 37.3028 123.63 37.3028C122.857 37.3028 122.224 37.571 121.731 38.1075C121.237 38.644 120.991 39.395 120.991 40.3606C120.991 41.3262 121.237 42.0773 121.731 42.6137C122.224 43.1502 122.857 43.4184 123.63 43.4184C124.402 43.4184 125.035 43.1502 125.529 42.6137C126.023 42.0773 126.269 41.3262 126.269 40.3606ZM147.406 43.3541V49.4375H144.703C139.724 49.4375 137.235 46.9591 137.235 42.0022V37.2384H134.982V31.2837H137.235V26.9062H144.381V31.2837H147.342V37.2384H144.381V42.1309C144.381 42.5601 144.477 42.8712 144.671 43.0644C144.885 43.2575 145.228 43.3541 145.701 43.3541H147.406ZM167.219 40.1997C167.219 40.6932 167.187 41.1653 167.123 41.6159H155.632C155.739 43.1824 156.394 43.9656 157.595 43.9656C158.368 43.9656 158.926 43.6116 159.269 42.9034H166.833C166.576 44.1909 166.028 45.3497 165.192 46.3797C164.376 47.3882 163.335 48.1929 162.069 48.7937C160.825 49.3731 159.451 49.6628 157.949 49.6628C156.147 49.6628 154.538 49.2873 153.121 48.5362C151.726 47.7852 150.632 46.7123 149.838 45.3175C149.066 43.9012 148.679 42.249 148.679 40.3606C148.679 38.4723 149.066 36.8307 149.838 35.4359C150.632 34.0197 151.726 32.936 153.121 32.185C154.538 31.434 156.147 31.0584 157.949 31.0584C159.752 31.0584 161.351 31.434 162.745 32.185C164.162 32.9146 165.256 33.966 166.028 35.3394C166.822 36.7127 167.219 38.3328 167.219 40.1997ZM159.977 38.4937C159.977 37.8929 159.784 37.4423 159.398 37.1419C159.012 36.82 158.529 36.6591 157.949 36.6591C156.683 36.6591 155.943 37.2706 155.728 38.4937H159.977Z" fill="white"/>
<path d="M57.7763 31.9919L56.8907 31.5274L56.8863 31.536L57.7763 31.9919ZM61.7032 27.9041L62.1982 28.773L62.2064 28.7682L61.7032 27.9041ZM72.9688 27.55L72.5317 28.4494L72.5391 28.453L72.5466 28.4565L72.9688 27.55ZM76.767 30.6722L75.9532 31.2535L75.9593 31.2619L76.767 30.6722ZM78.7304 35.4037V36.4037H79.9248L79.7148 35.228L78.7304 35.4037ZM71.1985 35.4037L70.2891 35.8195L70.5561 36.4037H71.1985V35.4037ZM69.7179 33.6656L69.1502 34.4888L69.1663 34.5L69.1829 34.5104L69.7179 33.6656ZM64.6967 34.3737L63.9103 33.7559L63.9057 33.7618L63.9012 33.7677L64.6967 34.3737ZM64.6967 41.6481L63.9012 42.2542L63.9057 42.2601L63.9103 42.2659L64.6967 41.6481ZM69.7179 42.3884L70.266 43.2249L70.2726 43.2205L69.7179 42.3884ZM71.1985 40.6181V39.6181H70.5561L70.2891 40.2024L71.1985 40.6181ZM78.7304 40.6181L79.7148 40.7939L79.9248 39.6181H78.7304V40.6181ZM76.767 45.3497L75.9593 44.76L75.9532 44.7684L76.767 45.3497ZM72.9688 48.5041L73.3959 49.4083L73.4012 49.4058L72.9688 48.5041ZM61.7032 48.15L61.2 49.0142L61.2083 49.0189L61.7032 48.15ZM57.7763 44.03L56.8863 44.4859L56.8907 44.4944L57.7763 44.03ZM57.4245 38.0109C57.4245 35.894 57.8469 34.0476 58.6664 32.4477L56.8863 31.536C55.9033 33.4553 55.4245 35.6216 55.4245 38.0109H57.4245ZM58.662 32.4563C59.4976 30.8628 60.6724 29.6421 62.1982 28.773L61.2083 27.0351C59.3436 28.0973 57.9005 29.6018 56.8907 31.5275L58.662 32.4563ZM62.2064 28.7682C63.7245 27.8843 65.5404 27.4234 67.6901 27.4234V25.4234C65.2477 25.4234 63.0723 25.9497 61.2 27.0399L62.2064 28.7682ZM67.6901 27.4234C69.5354 27.4234 71.1419 27.7738 72.5317 28.4494L73.406 26.6506C71.7058 25.8241 69.7931 25.4234 67.6901 25.4234V27.4234ZM72.5466 28.4565C73.9633 29.1163 75.092 30.0477 75.9532 31.2534L77.5807 30.0909C76.5107 28.5929 75.1074 27.4429 73.3911 26.6435L72.5466 28.4565ZM75.9593 31.2619C76.8486 32.4798 77.4483 33.9124 77.746 35.5795L79.7148 35.228C79.3688 33.2901 78.6595 31.5683 77.5746 30.0825L75.9593 31.2619ZM78.7304 34.4037H71.1985V36.4037H78.7304V34.4037ZM72.108 34.988C71.6911 34.0761 71.0742 33.3409 70.253 32.8208L69.1829 34.5104C69.6491 34.8057 70.0193 35.2294 70.2891 35.8195L72.108 34.988ZM70.2856 32.8424C69.4831 32.2889 68.5628 32.0219 67.5613 32.0219V34.0219C68.1907 34.0219 68.7081 34.184 69.1502 34.4888L70.2856 32.8424ZM67.5613 32.0219C66.07 32.0219 64.8184 32.6002 63.9103 33.7559L65.483 34.9916C65.9911 34.3448 66.6493 34.0219 67.5613 34.0219V32.0219ZM63.9012 33.7677C63.0427 34.8945 62.6667 36.3433 62.6667 38.0109H64.6667C64.6667 36.6315 64.9773 35.6555 65.4921 34.9798L63.9012 33.7677ZM62.6667 38.0109C62.6667 39.6786 63.0427 41.1273 63.9012 42.2542L65.4921 41.0421C64.9773 40.3664 64.6667 39.3904 64.6667 38.0109H62.6667ZM63.9103 42.2659C64.8184 43.4217 66.07 44 67.5613 44V42C66.6493 42 65.9911 41.677 65.483 41.0303L63.9103 42.2659ZM67.5613 44C68.552 44 69.4652 43.7495 70.2659 43.2249L69.1699 41.552C68.726 41.8428 68.2015 42 67.5613 42V44ZM70.2726 43.2205C71.0815 42.6812 71.6928 41.9421 72.108 41.0339L70.2891 40.2024C70.0176 40.7962 69.6418 41.2373 69.1632 41.5564L70.2726 43.2205ZM71.1985 41.6181H78.7304V39.6181H71.1985V41.6181ZM77.746 40.4423C77.4483 42.1095 76.8486 43.542 75.9593 44.76L77.5746 45.9394C78.6595 44.4536 79.3688 42.7318 79.7148 40.7939L77.746 40.4423ZM75.9532 44.7684C75.0902 45.9767 73.958 46.9208 72.5365 47.6023L73.4012 49.4058C75.1126 48.5853 76.5125 47.4265 77.5807 45.9309L75.9532 44.7684ZM72.5418 47.5998C71.1496 48.2573 69.5395 48.5984 67.6901 48.5984V50.5984C69.789 50.5984 71.6981 50.21 73.3959 49.4083L72.5418 47.5998ZM67.6901 48.5984C65.5367 48.5984 63.7178 48.1467 62.1982 47.2811L61.2083 49.0189C63.079 50.0845 65.2514 50.5984 67.6901 50.5984V48.5984ZM62.2064 47.2858C60.6759 46.3947 59.4985 45.1609 58.662 43.5656L56.8907 44.4944C57.8996 46.4183 59.3401 47.9312 61.2 49.0142L62.2064 47.2858ZM58.6664 43.5741C57.8469 41.9742 57.4245 40.1278 57.4245 38.0109H55.4245C55.4245 40.4003 55.9033 42.5666 56.8863 44.4859L58.6664 43.5741ZM87.966 34.6313H86.966V37.8266L88.7875 35.2013L87.966 34.6313ZM90.6375 32.1206L91.1468 32.9812L91.1533 32.9774L91.1597 32.9735L90.6375 32.1206ZM93.9206 31.155H94.9206V30.155H93.9206V31.155ZM93.9206 38.7834V39.7834H94.9206V38.7834H93.9206ZM88.8994 39.4916L88.308 38.6852L88.3015 38.69L88.295 38.6949L88.8994 39.4916ZM87.966 49.4375V50.4375H88.966V49.4375H87.966ZM80.8203 49.4375H79.8203V50.4375H80.8203V49.4375ZM80.8203 31.2838V30.2837H79.8203V31.2838H80.8203ZM87.966 31.2838H88.966V30.2837H87.966V31.2838ZM88.7875 35.2013C89.4391 34.2623 90.225 33.5268 91.1468 32.9812L90.1282 31.26C88.9471 31.9591 87.952 32.8973 87.1444 34.0612L88.7875 35.2013ZM91.1597 32.9735C92.0677 32.4176 92.9831 32.155 93.9206 32.155V30.155C92.5836 30.155 91.3103 30.5362 90.1154 31.2678L91.1597 32.9735ZM92.9206 31.155V38.7834H94.9206V31.155H92.9206ZM93.9206 37.7834H91.8928V39.7834H93.9206V37.7834ZM91.8928 37.7834C90.4612 37.7834 89.2061 38.0266 88.308 38.6852L89.4908 40.298C89.8802 40.0124 90.6207 39.7834 91.8928 39.7834V37.7834ZM88.295 38.6949C87.3124 39.4403 86.966 40.6601 86.966 42.0022H88.966C88.966 40.9409 89.2418 40.487 89.5038 40.2883L88.295 38.6949ZM86.966 42.0022V49.4375H88.966V42.0022H86.966ZM87.966 48.4375H80.8203V50.4375H87.966V48.4375ZM81.8203 49.4375V31.2838H79.8203V49.4375H81.8203ZM80.8203 32.2838H87.966V30.2837H80.8203V32.2838ZM86.966 31.2838V34.6313H88.966V31.2838H86.966ZM112.84 41.6159V42.6159H113.708L113.83 41.7574L112.84 41.6159ZM101.349 41.6159V40.6159H100.279L100.352 41.6843L101.349 41.6159ZM104.987 42.9034V41.9034H104.36L104.087 42.4672L104.987 42.9034ZM112.551 42.9034L113.531 43.0996L113.77 41.9034H112.551V42.9034ZM110.909 46.3797L110.133 45.7491L110.131 45.751L110.909 46.3797ZM107.787 48.7938L108.209 49.7004L108.216 49.6972L107.787 48.7938ZM98.8388 48.5363L98.3647 49.4167L98.3703 49.4197L98.8388 48.5363ZM95.5557 45.3175L94.6778 45.7964L94.6821 45.8043L94.6866 45.8122L95.5557 45.3175ZM95.5557 35.4359L94.6834 34.9469L94.6809 34.9514L95.5557 35.4359ZM98.8388 32.185L98.3703 31.3015L98.3647 31.3045L98.8388 32.185ZM108.463 32.185L107.989 33.0655L107.997 33.0698L108.005 33.074L108.463 32.185ZM111.746 35.3394L110.874 35.8297L110.88 35.8399L111.746 35.3394ZM105.695 38.4937V39.4937H106.695V38.4937H105.695ZM105.115 37.1419L104.475 37.9101L104.488 37.9209L104.501 37.9312L105.115 37.1419ZM101.446 38.4937L100.461 38.3209L100.255 39.4937H101.446V38.4937ZM111.937 40.1997C111.937 40.6498 111.908 41.0745 111.85 41.4745L113.83 41.7574C113.902 41.2562 113.937 40.7366 113.937 40.1997H111.937ZM112.84 40.6159H101.349V42.6159H112.84V40.6159ZM100.352 41.6843C100.413 42.5718 100.636 43.3999 101.153 44.0194C101.705 44.6796 102.474 44.9656 103.313 44.9656V42.9656C102.95 42.9656 102.791 42.86 102.688 42.737C102.551 42.5733 102.394 42.2266 102.347 41.5476L100.352 41.6843ZM103.313 44.9656C103.856 44.9656 104.382 44.8393 104.846 44.5444C105.31 44.2502 105.649 43.8287 105.886 43.3397L104.087 42.4672C103.981 42.6863 103.869 42.7959 103.775 42.8557C103.682 42.9149 103.542 42.9656 103.313 42.9656V44.9656ZM104.987 43.9034H112.551V41.9034H104.987V43.9034ZM111.57 42.7073C111.345 43.8338 110.869 44.8438 110.133 45.7491L111.685 47.0103C112.623 45.8556 113.242 44.5481 113.531 43.0996L111.57 42.7073ZM110.131 45.751C109.418 46.6338 108.5 47.3485 107.358 47.8903L108.216 49.6972C109.606 49.0373 110.77 48.1427 111.687 47.0084L110.131 45.751ZM107.365 47.8872C106.265 48.3994 105.037 48.6628 103.667 48.6628V50.6628C105.301 50.6628 106.82 50.3468 108.209 49.7003L107.365 47.8872ZM103.667 48.6628C102.007 48.6628 100.562 48.3182 99.3073 47.6528L98.3703 49.4197C99.948 50.2564 101.722 50.6628 103.667 50.6628V48.6628ZM99.3129 47.6558C98.0856 46.9949 97.1271 46.0568 96.4247 44.8228L94.6866 45.8122C95.5721 47.3678 96.8024 48.5755 98.3647 49.4167L99.3129 47.6558ZM96.4336 44.8386C95.7539 43.5925 95.3969 42.1103 95.3969 40.3606H93.3969C93.3969 42.3876 93.8125 44.21 94.6778 45.7964L96.4336 44.8386ZM95.3969 40.3606C95.3969 38.6105 95.754 37.1418 96.4305 35.9204L94.6809 34.9514C93.8123 36.5197 93.3969 38.3341 93.3969 40.3606H95.3969ZM96.4279 35.9249C97.1315 34.67 98.0897 33.7241 99.3129 33.0655L98.3647 31.3045C96.7983 32.1479 95.5678 33.3694 94.6834 34.9469L96.4279 35.9249ZM99.3073 33.0685C100.562 32.403 102.007 32.0584 103.667 32.0584V30.0584C101.722 30.0584 99.948 30.4649 98.3703 31.3015L99.3073 33.0685ZM103.667 32.0584C105.327 32.0584 106.759 32.4031 107.989 33.0655L108.937 31.3045C107.377 30.4648 105.612 30.0584 103.667 30.0584V32.0584ZM108.005 33.074C109.249 33.715 110.199 34.6288 110.874 35.8296L112.618 34.8491C111.748 33.3033 110.509 32.1141 108.921 31.296L108.005 33.074ZM110.88 35.8399C111.572 37.0361 111.937 38.4772 111.937 40.1997H113.937C113.937 38.1884 113.508 36.3893 112.612 34.8389L110.88 35.8399ZM106.695 38.4937C106.695 37.6623 106.415 36.8856 105.729 36.3525L104.501 37.9312C104.589 37.999 104.695 38.1236 104.695 38.4937H106.695ZM105.756 36.3737C105.163 35.8796 104.443 35.6591 103.667 35.6591V37.6591C104.05 37.6591 104.296 37.7604 104.475 37.9101L105.756 36.3737ZM103.667 35.6591C102.876 35.6591 102.125 35.8515 101.525 36.3468C100.923 36.8441 100.597 37.5451 100.461 38.3209L102.431 38.6665C102.509 38.2193 102.661 38.003 102.799 37.8887C102.94 37.7724 103.192 37.6591 103.667 37.6591V35.6591ZM101.446 39.4937H105.695V37.4937H101.446V39.4937ZM114.714 35.4037L113.809 34.9786L113.806 34.9847L114.714 35.4037ZM117.418 32.185L117.958 33.0268L117.969 33.0195L117.418 32.185ZM124.306 31.7987L123.807 32.6657L123.816 32.6704L123.824 32.675L124.306 31.7987ZM126.269 33.7622L125.389 34.2363L127.269 33.7622H126.269ZM126.269 31.2838V30.2837H125.269V31.2838H126.269ZM133.383 31.2838H134.383V30.2837H133.383V31.2838ZM133.383 49.4375V50.4375H134.383V49.4375H133.383ZM126.269 49.4375H125.269V50.4375H126.269V49.4375ZM126.269 46.9591H127.269L125.389 46.485L126.269 46.9591ZM124.306 48.9547L124.788 49.8309L124.796 49.8263L124.804 49.8216L124.306 48.9547ZM117.418 48.5684L116.867 49.403L116.878 49.4101L117.418 48.5684ZM114.714 45.3497L113.804 45.7635L113.807 45.7719L113.811 45.7802L114.714 45.3497ZM125.529 38.1075L126.265 37.4304L125.529 38.1075ZM121.731 38.1075L120.995 37.4304L121.731 38.1075ZM114.748 40.3606C114.748 38.5613 115.052 37.0583 115.622 35.8228L113.806 34.9847C113.089 36.5388 112.748 38.3404 112.748 40.3606H114.748ZM115.619 35.8289C116.217 34.5556 117.003 33.6394 117.958 33.0267L116.878 31.3433C115.558 32.1898 114.541 33.4194 113.809 34.9786L115.619 35.8289ZM117.969 33.0195C118.936 32.3808 120.02 32.0584 121.248 32.0584V30.0584C119.644 30.0584 118.174 30.4871 116.867 31.3505L117.969 33.0195ZM121.248 32.0584C122.287 32.0584 123.127 32.2747 123.807 32.6657L124.804 30.9318C123.768 30.3357 122.57 30.0584 121.248 30.0584V32.0584ZM123.824 32.675C124.519 33.0572 125.032 33.5745 125.389 34.2363L127.15 33.2881C126.605 32.2762 125.81 31.4845 124.788 30.9225L123.824 32.675ZM127.269 33.7622V31.2838H125.269V33.7622H127.269ZM126.269 32.2838H133.383V30.2837H126.269V32.2838ZM132.383 31.2838V49.4375H134.383V31.2838H132.383ZM133.383 48.4375H126.269V50.4375H133.383V48.4375ZM127.269 49.4375V46.9591H125.269V49.4375H127.269ZM125.389 46.485C125.03 47.1509 124.511 47.683 123.807 48.0878L124.804 49.8216C125.817 49.2393 126.607 48.441 127.15 47.4332L125.389 46.485ZM123.824 48.0785C123.141 48.4543 122.294 48.6628 121.248 48.6628V50.6628C122.562 50.6628 123.754 50.3993 124.788 49.8309L123.824 48.0785ZM121.248 48.6628C120.014 48.6628 118.926 48.3479 117.958 47.7267L116.878 49.4101C118.184 50.2482 119.65 50.6628 121.248 50.6628V48.6628ZM117.969 47.734C117.003 47.096 116.214 46.1723 115.617 44.9192L113.811 45.7802C114.544 47.3166 115.558 48.5388 116.867 49.4029L117.969 47.734ZM115.624 44.9359C115.052 43.6757 114.748 42.1594 114.748 40.3606H112.748C112.748 42.3814 113.089 44.1912 113.804 45.7635L115.624 44.9359ZM127.269 40.3606C127.269 39.2275 126.977 38.2048 126.265 37.4304L124.793 38.7846C125.068 39.0831 125.269 39.5625 125.269 40.3606H127.269ZM126.265 37.4304C125.57 36.6747 124.663 36.3028 123.63 36.3028V38.3028C124.142 38.3028 124.501 38.4674 124.793 38.7846L126.265 37.4304ZM123.63 36.3028C122.597 36.3028 121.69 36.6747 120.995 37.4304L122.467 38.7846C122.759 38.4674 123.118 38.3028 123.63 38.3028V36.3028ZM120.995 37.4304C120.283 38.2048 119.991 39.2275 119.991 40.3606H121.991C121.991 39.5625 122.192 39.0831 122.467 38.7846L120.995 37.4304ZM119.991 40.3606C119.991 41.4938 120.283 42.5165 120.995 43.2908L122.467 41.9367C122.192 41.6381 121.991 41.1587 121.991 40.3606H119.991ZM120.995 43.2908C121.69 44.0465 122.597 44.4184 123.63 44.4184V42.4184C123.118 42.4184 122.759 42.2539 122.467 41.9367L120.995 43.2908ZM123.63 44.4184C124.663 44.4184 125.57 44.0465 126.265 43.2908L124.793 41.9367C124.501 42.2539 124.142 42.4184 123.63 42.4184V44.4184ZM126.265 43.2908C126.977 42.5165 127.269 41.4938 127.269 40.3606H125.269C125.269 41.1587 125.068 41.6381 124.793 41.9367L126.265 43.2908ZM147.406 43.3541H148.406V42.3541H147.406V43.3541ZM147.406 49.4375V50.4375H148.406V49.4375H147.406ZM137.235 37.2384H138.235V36.2384H137.235V37.2384ZM134.982 37.2384H133.982V38.2384H134.982V37.2384ZM134.982 31.2838V30.2837H133.982V31.2838H134.982ZM137.235 31.2838V32.2838H138.235V31.2838H137.235ZM137.235 26.9062V25.9062H136.235V26.9062H137.235ZM144.381 26.9062H145.381V25.9062H144.381V26.9062ZM144.381 31.2838H143.381V32.2838H144.381V31.2838ZM147.342 31.2838H148.342V30.2837H147.342V31.2838ZM147.342 37.2384V38.2384H148.342V37.2384H147.342ZM144.381 37.2384V36.2384H143.381V37.2384H144.381ZM144.671 43.0644L143.963 43.7715L143.982 43.7901L144.002 43.8077L144.671 43.0644ZM146.406 43.3541V49.4375H148.406V43.3541H146.406ZM147.406 48.4375H144.703V50.4375H147.406V48.4375ZM144.703 48.4375C142.367 48.4375 140.798 47.8565 139.808 46.87C138.818 45.8843 138.235 44.3254 138.235 42.0022H136.235C136.235 44.6359 136.897 46.7946 138.396 48.2873C139.895 49.7793 142.06 50.4375 144.703 50.4375V48.4375ZM138.235 42.0022V37.2384H136.235V42.0022H138.235ZM137.235 36.2384H134.982V38.2384H137.235V36.2384ZM135.982 37.2384V31.2838H133.982V37.2384H135.982ZM134.982 32.2838H137.235V30.2837H134.982V32.2838ZM138.235 31.2838V26.9062H136.235V31.2838H138.235ZM137.235 27.9062H144.381V25.9062H137.235V27.9062ZM143.381 26.9062V31.2838H145.381V26.9062H143.381ZM144.381 32.2838H147.342V30.2837H144.381V32.2838ZM146.342 31.2838V37.2384H148.342V31.2838H146.342ZM147.342 36.2384H144.381V38.2384H147.342V36.2384ZM143.381 37.2384V42.1309H145.381V37.2384H143.381ZM143.381 42.1309C143.381 42.6784 143.5 43.3077 143.963 43.7715L145.378 42.3573C145.416 42.3956 145.418 42.4201 145.408 42.3898C145.398 42.3551 145.381 42.2749 145.381 42.1309H143.381ZM144.002 43.8077C144.486 44.2435 145.129 44.3541 145.701 44.3541V42.3541C145.528 42.3541 145.42 42.336 145.36 42.319C145.302 42.3027 145.309 42.2936 145.339 42.3211L144.002 43.8077ZM145.701 44.3541H147.406V42.3541H145.701V44.3541ZM167.123 41.6159V42.6159H167.99L168.113 41.7574L167.123 41.6159ZM155.632 41.6159V40.6159H154.561L154.634 41.6843L155.632 41.6159ZM159.269 42.9034V41.9034H158.643L158.369 42.4672L159.269 42.9034ZM166.833 42.9034L167.814 43.0996L168.053 41.9034H166.833V42.9034ZM165.192 46.3797L164.415 45.7491L164.414 45.751L165.192 46.3797ZM162.069 48.7938L162.491 49.7004L162.498 49.6972L162.069 48.7938ZM153.121 48.5363L152.647 49.4167L152.653 49.4197L153.121 48.5363ZM149.838 45.3175L148.96 45.7964L148.965 45.8043L148.969 45.8122L149.838 45.3175ZM149.838 35.4359L148.966 34.9469L148.963 34.9514L149.838 35.4359ZM153.121 32.185L152.653 31.3015L152.647 31.3045L153.121 32.185ZM162.745 32.185L162.271 33.0655L162.279 33.0698L162.287 33.074L162.745 32.185ZM166.028 35.3394L165.157 35.8297L165.163 35.8399L166.028 35.3394ZM159.977 38.4937V39.4937H160.977V38.4937H159.977ZM159.398 37.1419L158.758 37.9101L158.771 37.9209L158.784 37.9312L159.398 37.1419ZM155.728 38.4937L154.743 38.3209L154.538 39.4937H155.728V38.4937ZM166.219 40.1997C166.219 40.6498 166.19 41.0745 166.133 41.4745L168.113 41.7574C168.184 41.2562 168.219 40.7366 168.219 40.1997H166.219ZM167.123 40.6159H155.632V42.6159H167.123V40.6159ZM154.634 41.6843C154.695 42.5718 154.918 43.3999 155.436 44.0194C155.988 44.6796 156.756 44.9656 157.595 44.9656V42.9656C157.233 42.9656 157.073 42.86 156.971 42.737C156.834 42.5733 156.676 42.2266 156.63 41.5476L154.634 41.6843ZM157.595 44.9656C158.139 44.9656 158.664 44.8393 159.129 44.5444C159.593 44.2502 159.932 43.8287 160.169 43.3397L158.369 42.4672C158.263 42.6863 158.152 42.7959 158.057 42.8557C157.964 42.9149 157.824 42.9656 157.595 42.9656V44.9656ZM159.269 43.9034H166.833V41.9034H159.269V43.9034ZM165.853 42.7073C165.627 43.8338 165.151 44.8438 164.415 45.7491L165.968 47.0103C166.906 45.8556 167.524 44.5481 167.814 43.0996L165.853 42.7073ZM164.414 45.751C163.7 46.6338 162.782 47.3485 161.641 47.8903L162.498 49.6972C163.888 49.0373 165.052 48.1427 165.969 47.0084L164.414 45.751ZM161.647 47.8872C160.547 48.3994 159.32 48.6628 157.949 48.6628V50.6628C159.583 50.6628 161.103 50.3468 162.491 49.7003L161.647 47.8872ZM157.949 48.6628C156.29 48.6628 154.845 48.3182 153.59 47.6528L152.653 49.4197C154.23 50.2564 156.004 50.6628 157.949 50.6628V48.6628ZM153.595 47.6558C152.368 46.9949 151.41 46.0568 150.707 44.8228L148.969 45.8122C149.855 47.3678 151.085 48.5755 152.647 49.4167L153.595 47.6558ZM150.716 44.8386C150.036 43.5925 149.679 42.1103 149.679 40.3606H147.679C147.679 42.3876 148.095 44.21 148.96 45.7964L150.716 44.8386ZM149.679 40.3606C149.679 38.6105 150.036 37.1418 150.713 35.9204L148.963 34.9514C148.095 36.5197 147.679 38.3341 147.679 40.3606H149.679ZM150.71 35.9249C151.414 34.67 152.372 33.7241 153.595 33.0655L152.647 31.3045C151.081 32.1479 149.85 33.3694 148.966 34.9469L150.71 35.9249ZM153.59 33.0685C154.845 32.403 156.29 32.0584 157.949 32.0584V30.0584C156.004 30.0584 154.23 30.4649 152.653 31.3015L153.59 33.0685ZM157.949 32.0584C159.609 32.0584 161.041 32.4031 162.271 33.0655L163.219 31.3045C161.66 30.4648 159.894 30.0584 157.949 30.0584V32.0584ZM162.287 33.074C163.532 33.715 164.481 34.6288 165.157 35.8296L166.9 34.8491C166.03 33.3033 164.791 32.1141 163.203 31.296L162.287 33.074ZM165.163 35.8399C165.854 37.0361 166.219 38.4772 166.219 40.1997H168.219C168.219 38.1884 167.791 36.3893 166.894 34.8389L165.163 35.8399ZM160.977 38.4937C160.977 37.6623 160.697 36.8856 160.012 36.3525L158.784 37.9312C158.871 37.999 158.977 38.1236 158.977 38.4937H160.977ZM160.038 36.3737C159.445 35.8796 158.725 35.6591 157.949 35.6591V37.6591C158.332 37.6591 158.578 37.7604 158.758 37.9101L160.038 36.3737ZM157.949 35.6591C157.159 35.6591 156.407 35.8515 155.808 36.3468C155.206 36.8441 154.88 37.5451 154.743 38.3209L156.713 38.6665C156.792 38.2193 156.943 38.003 157.081 37.8887C157.222 37.7724 157.474 37.6591 157.949 37.6591V35.6591ZM155.728 39.4937H159.977V37.4937H155.728V39.4937Z" fill="url(#paint2_linear_22_95615)" mask="url(#path-4-outside-1_22_95615)"/>
</g>
<defs>
<filter id="filter0_ddd_22_95615" x="0.137451" y="0.137451" width="223.725" height="80.5251" filterUnits="userSpaceOnUse" color-interpolation-filters="sRGB">
<feFlood flood-opacity="0" result="BackgroundImageFix"/>
<feColorMatrix in="SourceAlpha" type="matrix" values="0 0 0 0 0 0 0 0 0 0 0 0 0 0 0 0 0 0 127 0" result="hardAlpha"/>
<feOffset dy="1"/>
<feGaussianBlur stdDeviation="2.5"/>
<feColorMatrix type="matrix" values="0 0 0 0 0 0 0 0 0 0 0 0 0 0 0 0 0 0 0.2 0"/>
<feBlend mode="normal" in2="BackgroundImageFix" result="effect1_dropShadow_22_95615"/>
<feColorMatrix in="SourceAlpha" type="matrix" values="0 0 0 0 0 0 0 0 0 0 0 0 0 0 0 0 0 0 127 0" result="hardAlpha"/>
<feOffset dy="3"/>
<feGaussianBlur stdDeviation="2"/>
<feColorMatrix type="matrix" values="0 0 0 0 0 0 0 0 0 0 0 0 0 0 0 0 0 0 0.12 0"/>
<feBlend mode="normal" in2="effect1_dropShadow_22_95615" result="effect2_dropShadow_22_95615"/>
<feColorMatrix in="SourceAlpha" type="matrix" values="0 0 0 0 0 0 0 0 0 0 0 0 0 0 0 0 0 0 127 0" result="hardAlpha"/>
<feOffset dy="2"/>
<feGaussianBlur stdDeviation="2"/>
<feColorMatrix type="matrix" values="0 0 0 0 0 0 0 0 0 0 0 0 0 0 0 0 0 0 0.14 0"/>
<feBlend mode="normal" in2="effect2_dropShadow_22_95615" result="effect3_dropShadow_22_95615"/>
<feBlend mode="normal" in="SourceGraphic" in2="effect3_dropShadow_22_95615" result="shape"/>
</filter>
<filter id="filter1_ddd_22_95615" x="48.9869" y="20.2733" width="125.67" height="39.402" filterUnits="userSpaceOnUse" color-interpolation-filters="sRGB">
<feFlood flood-opacity="0" result="BackgroundImageFix"/>
<feColorMatrix in="SourceAlpha" type="matrix" values="0 0 0 0 0 0 0 0 0 0 0 0 0 0 0 0 0 0 127 0" result="hardAlpha"/>
<feOffset dy="1.2875"/>
<feGaussianBlur stdDeviation="3.21875"/>
<feColorMatrix type="matrix" values="0 0 0 0 0.532764 0 0 0 0 0.0516202 0 0 0 0 0.0516202 0 0 0 0.2 0"/>
<feBlend mode="normal" in2="BackgroundImageFix" result="effect1_dropShadow_22_95615"/>
<feColorMatrix in="SourceAlpha" type="matrix" values="0 0 0 0 0 0 0 0 0 0 0 0 0 0 0 0 0 0 127 0" result="hardAlpha"/>
<feOffset dy="3.8625"/>
<feGaussianBlur stdDeviation="2.575"/>
<feColorMatrix type="matrix" values="0 0 0 0 0.482764 0 0 0 0 0.0467756 0 0 0 0 0.0467756 0 0 0 0.12 0"/>
<feBlend mode="normal" in2="effect1_dropShadow_22_95615" result="effect2_dropShadow_22_95615"/>
<feColorMatrix in="SourceAlpha" type="matrix" values="0 0 0 0 0 0 0 0 0 0 0 0 0 0 0 0 0 0 127 0" result="hardAlpha"/>
<feOffset dy="2.575"/>
<feGaussianBlur stdDeviation="2.575"/>
<feColorMatrix type="matrix" values="0 0 0 0 0.357764 0 0 0 0 0.100254 0 0 0 0 0.100254 0 0 0 0.14 0"/>
<feBlend mode="normal" in2="effect2_dropShadow_22_95615" result="effect3_dropShadow_22_95615"/>
<feBlend mode="normal" in="SourceGraphic" in2="effect3_dropShadow_22_95615" result="shape"/>
</filter>
<linearGradient id="paint0_linear_22_95615" x1="112" y1="8" x2="112" y2="69.8" gradientUnits="userSpaceOnUse">
<stop/>
<stop offset="1" stop-color="white" stop-opacity="0"/>
</linearGradient>
<linearGradient id="paint1_linear_22_95615" x1="112" y1="8" x2="112" y2="69.8" gradientUnits="userSpaceOnUse">
<stop stop-color="white"/>
<stop offset="1"/>
</linearGradient>
<linearGradient id="paint2_linear_22_95615" x1="111.423" y1="14.4375" x2="111.423" y2="62.4375" gradientUnits="userSpaceOnUse">
<stop stop-color="#E58200"/>
<stop offset="1" stop-color="#835900" stop-opacity="0"/>
</linearGradient>
<clipPath id="clip0_22_95615">
<rect x="9" y="8" width="206" height="61.8" rx="30.9" fill="white"/>
</clipPath>
</defs>
</svg>
